# xmcd
#
# Track frame offsets: 
#        182
#        17947
#        36707
#        68790
#        88090
#        106297
#        126607
#        144417
#        162932
#        188642
#        214625
#        233147
#        261020
#        297855
#
# Disc length: 4271 seconds
#
# Revision: 1
# Processed by: cddbd v1.5.2PL0 Copyright (c) Steve Scherf et al.
# Submitted via: ExactAudioCopyFreeDBPlugin 1.0
#
DISCID=d110ad0e
DTITLE=Various Artist - The Journey Continues . . . Celebrate Black M
DTITLE=usic
DYEAR=1995
DGENRE=Rhythm and Blues
TTITLE0=Method Man - I'll Be There for You - You're All I Need to Get 
TTITLE0=By (Puff Daddy remix)  (ft Mary J Blige)
TTITLE1=Boyz II Men - Water Runs Dry
TTITLE2=Vanessa Williams - The Way That You Love Me
TTITLE3=Mint Condition - U Send Me Swingin'
TTITLE4=Subway - Fire (LP version)
TTITLE5=Joya - I Like (Uptown remix)
TTITLE6=Jemini The Gifted One - Funk Soul Sensation (Godfather Don rem
TTITLE6=ix)
TTITLE7=Prince Markie Dee - Crunch Time (Mellow remix - radio version)
TTITLE8=Barry White - Come On (Roller Skate remix)
TTITLE9=Vybe - Take It to the Front (Daddy 'O remix)
TTITLE10=Raja-Nee - Walking Away with It
TTITLE11=United Future Organization - Stolen Moments (vocal version)
TTITLE12=Barry White - Your Sweetness is My Weakness (extended Funk La
TTITLE12=b remix)
TTITLE13=Dazz Band - Joystick (extended 7" mix)
EXTD=
EXTT0=
EXTT1=
EXTT2=
EXTT3=
EXTT4=
EXTT5=
EXTT6=
EXTT7=
EXTT8=
EXTT9=
EXTT10=
EXTT11=
EXTT12=
EXTT13=
PLAYORDER=
